# xmcd
#
# Track frame offsets: 
#        150
#        17130
#        39007
#        54655
#        77390
#        86957
#        108922
#        114722
#        132872
#        147075
#        174745
#
# Disc length: 4612 seconds
#
# Revision: 1
# Processed by: cddbd v1.5.2PL0 Copyright (c) Steve Scherf et al.
# Submitted via: ExactAudioCopy v0.99pb5
#
DISCID=8912020b
DTITLE=Oasis - Heathen Chemistry
DYEAR=2002
DGENRE=Rock
TTITLE0=The Hindu Times
TTITLE1=Force Of Nature
TTITLE2=Hung In A Bad Place
TTITLE3=Little By Little
TTITLE4=Songbird
TTITLE5=Stop Crying Your Heart Out
TTITLE6=A Quick Peep
TTITLE7=(Probably) All In The Mind
TTITLE8=She Is Love
TTITLE9=Born On A Different Cloud
TTITLE10=Better Man
EXTD=
EXTT0=
EXTT1=
EXTT2=
EXTT3=
EXTT4=
EXTT5=
EXTT6=
EXTT7=
EXTT8=
EXTT9=
EXTT10=
PLAYORDER=
